<?xml version="1.0" encoding="UTF-8"?>
<svg id="Capa_1" data-name="Capa 1" xmlns="http://www.w3.org/2000/svg" viewBox="0 0 595.27 487.74">
  <defs>
    <style>
      .cls-1 {
        fill: #1d1d1b;
      }
    </style>
  </defs>
  <path class="cls-1" d="m477.32,261.11c-3.37,12.56-9.45,24.37-17.78,34.33.88-3.62,1.67-7.26,2.38-10.93,6.87-6.32,12.25-14.29,15.4-23.4Z"/>
  <path class="cls-1" d="m199.31,109.2c.27,25.87-24.65,46.96-50.58,40.52-41.76-10.85-41.79-70.27-.03-81.13,25.97-6.46,50.89,14.72,50.61,40.6h0Zm0,0c.23-17.63-16.79-31.54-33.79-26.53-25.62,7.65-25.7,45.53,0,53.13,17.01,4.98,34.02-8.97,33.79-26.6h0Z"/>
  <path class="cls-1" d="m475.44,216.15c-.05-1.5-.05-3.01,0-4.5-.15,1.48-.15,2.99,0,4.5Z"/>
  <path class="cls-1" d="m475.44,216.15c-.05-1.5-.05-3.01,0-4.5-.15,1.48-.15,2.99,0,4.5Z"/>
  <path class="cls-1" d="m494.66,237.35s-.05-.02-.07-.02c.08,1,.14,2.01.17,3.01-.02-1-.05-1.99-.1-2.99Zm-19.22-21.19c-.05-1.5-.05-3.01,0-4.5-.15,1.48-.15,2.99,0,4.5Zm0,0c-.05-1.5-.05-3.01,0-4.5-.15,1.48-.15,2.99,0,4.5Z"/>
  <path class="cls-1" d="m577.97,165.43c-32.82-34.09-83.64-23.9-105.92,10.5-2.41-8.99-5.37-17.83-8.87-26.48-23.17-57.99-70.19-105.87-127.83-130.17C198.99-38.71,49.29,40.31,9.94,173.2c-2.14,7.21-3.94,14.58-5.4,22.1C1.7,209.8.15,224.85.04,240.34c-.14,7.95.12,15.86.78,23.64.61,7.43,1.58,14.79,2.89,22.03,2.06,11.51,4.96,22.74,8.65,33.67,2.46,7.34,5.29,14.55,8.43,21.57,17.51,39.16,45.18,73.17,79.47,98.53,3.74,2.79,7.56,5.44,11.47,8.01,1.92,1.27,3.88,2.52,5.85,3.72,7.46,4.61,15.18,8.84,23.11,12.63,3.3,1.58,6.61,3.08,9.98,4.5,3.94,1.67,7.92,3.25,11.97,4.71h.02c2.91,1.05,5.83,2.06,8.79,3.01,8.35,2.69,16.89,4.91,25.6,6.66,2.74.56,5.51,1.07,8.28,1.51,8.87,1.48,17.9,2.45,27.04,2.89,2.29.12,4.59.2,6.9.24,1.51.03,3.03.05,4.54.05,3.06.05,6.1.05,9.14-.02,24.97-.53,49.15-4.95,71.94-12.68,3.69-1.24,7.34-2.58,10.95-4.01,7.22-2.84,14.31-6.02,21.19-9.52,3.65-1.85,7.24-3.79,10.78-5.81,13.53-7.7,26.29-16.66,38.12-26.68,3.43-2.91,6.78-5.9,10.04-8.99,44.53-41.96,74-99.9,78.27-163.71-4.98-4.47-9.19-9.82-12.36-15.94-.56-1.07-1.09-2.16-1.56-3.28-.02-.02-.03-.05-.03-.07-.49-1.12-.95-2.28-1.38-3.45-2.07-5.59-3.23-11.49-3.47-17.39-.15-1.51-.15-3.03,0-4.5.37,4.18,1.89,7.84,4.16,10.81.07.1.15.19.22.29,3.48,4.4,8.62,7.22,13.92,7.82l.36.05c-.76-6.65-4.06-18.19-4.25-19.6-.19-1.41-.25-2.36-.03-3.55.87-3.64,4.1-6.82,8.16-7.51,12.82-2.23,20.12,13.9,12.1,23.79-4.3,5.39-10.23,7.43-15.98,6.87.27,2.23.46,4.49.56,6.73,14.99,3.25,31.83-7.8,33.07-25.7,1.43-15.19-10.01-29.51-24.95-32.73,7.6-7.51,17.85-12.39,28.98-12.75,42.98-1.65,64.93,49.92,36,81.48-21.26,22.72-53.06,20.79-73.25,3.62-.07,1.68-.17,3.35-.27,5.01,15.99,14.4,39.7,19.66,60.81,11.57,42.13-15.69,53.5-69.91,22.93-102.42ZM40.01,343.4c3.3.8,6.56,1.82,9.77,3.08,31.63,12.12,49.88,40.74,51.94,70.91-25.29-19.8-46.52-44.9-61.71-73.98Zm115.93,105.67c-4.1-1.7-8.12-3.5-12.1-5.42-7.38-3.57-14.57-7.51-21.53-11.85-2.16-1.34-4.32-2.74-6.42-4.15,2.67-27.01-5.73-55.36-26.68-77.2-17.57-17.91-38.48-27.52-59.62-30.15-4.39-11.35-7.89-23.2-10.4-35.45,58.67-.92,112.91,37.17,131.94,93.48,3.25,9.59,5.46,19.7,6.51,30.24.39,3.93.63,7.94.68,11.98.24,9.72-.58,19.27-2.36,28.52Zm92-9.87v.02c-.59,9.14-1.77,18.13-3.47,26.99-4.42.05-8.8-.03-13.19-.22-8.16-.39-16.25-1.22-24.25-2.5-3.11-.49-6.22-1.05-9.3-1.67-7.97-1.61-15.82-3.65-23.52-6.1-1.87-.58-3.69-1.19-5.54-1.84,2.52-10.64,3.93-21.79,4.08-33.33.24-10.45-.63-20.7-2.5-30.66-1.56-8.48-3.88-16.72-6.83-24.7-21.76-58.6-78.88-101.54-144.31-101.91-1.1-.03-2.21-.03-3.31-.03-.8-7.51-1.24-15.14-1.31-22.91-.29-15.57,1.07-30.85,3.93-45.65,89.35-1.1,172.32,52.09,209.48,133.06h.02c2.7,5.91,5.18,11.97,7.39,18.15,4.06,11.42,7.26,23.3,9.47,35.59,1.17,6.44,2.06,13,2.65,19.66.46,4.83.76,9.72.88,14.65.05,1.58.08,3.16.1,4.74.12,6.27-.03,12.49-.46,18.64Zm10.4,26.4c2.18-11.05,3.57-22.42,4.18-34.04,20.57-6.39,43.68,2.69,55.17,21.26-19.72,7.12-39.64,11.3-59.35,12.78Zm71.52-17.56c-9.76-20.5-30.46-35.73-55.75-36.51-3.89-.07-7.65.15-11.27.65-.1-5.08-.36-10.15-.78-15.16,35.15-6.44,69.94,11.57,86.6,41.95-6.12,3.33-12.37,6.36-18.8,9.08Zm29.98-15.55c-15.3-31.1-47.01-53.95-85.73-54.74-4.91-.05-9.69.22-14.31.8-2.02-12.49-5.05-24.68-8.99-36.51,41.88-7.97,87.56,3.18,121.74,36.41,8.7,8.29,16.08,17.52,22.1,27.41-10.71,9.98-22.37,18.92-34.81,26.63Zm120.47-192.14c.03,1.58.03,3.14,0,4.69,0,.25-.02.51-.03.76-.75,22.13-9.28,41.71-22.62,56.77-2.16,7.84-4.78,15.55-7.84,23.11-10.44,26.16-26.02,50.12-45.43,70.52-5.93-9.87-13.12-19.26-21.62-27.98-36.51-38.22-89.43-52.94-138.74-44.21-36.61-86.37-122.36-148.87-220.41-150.77C51.72,78.57,140.93,7.52,243.79,7.4c106.04-1.92,198.52,71.23,227.29,169.11-2.57-3.11-5.3-6.07-8.23-8.84-51.36-49.36-137.45-31.66-163.38,35.06-19.43,48.88,5.25,106.38,54.52,125.01,38.45,14.94,79.17,2.5,103.66-25.19.68-2.36,1.31-4.72,1.89-7.12-2.16,2.58-4.45,5.03-6.9,7.33-33.94,32.79-90.05,31.99-122.3-2.55-40.3-42.3-25.66-112.92,29.2-133.95,24.61-9.45,50.31-5.66,70.28,6.93-1.94-.1-3.88-.1-5.81-.02-35.66.9-65.06,31.44-63.55,67.15.63,24.66,17.1,47.88,40.26,56.19,22.13,8.36,45.53,2.41,61.2-12.02.37-2.01.73-4.03,1.05-6.07-10.5,9.76-24.81,15.42-38.97,14.6-27.64-.7-50.84-25.49-49.1-52.71.73-25.68,23.83-47.18,49.1-45.48,21.55.7,39.87,18.41,41.79,39.14v.12c.1,2.04.12,4.11.07,6.22.12,12.76-.83,25.53-2.89,38.11,5.13-4.76,9.35-10.49,12.22-16.91,3.06-6.58,4.81-13.82,5.12-21.19Z"/>
  <path class="cls-1" d="m494.76,240.34c0,3.65-.08,7.31-.25,10.93-3.71-3.14-7.02-6.82-9.79-10.93-1.7-2.5-3.2-5.15-4.45-7.97-.05-.08-.08-.17-.12-.24-1.43-3.2-2.57-6.59-3.37-10.16.76,2.06,1.82,4.05,3.18,5.86.05.07.1.14.15.22.22.27.44.54.66.82,3.96,4.62,8.77,7.34,13.82,8.46.08,1,.14,2.01.17,3.01Z"/>
</svg>