<?xml version="1.0" encoding="UTF-8"?>
<svg id="Capa_1" data-name="Capa 1" xmlns="http://www.w3.org/2000/svg" viewBox="0 0 177.06 149.36">
  <defs>
    <style>
      .cls-1 {
        fill: #2b262d;
      }
    </style>
  </defs>
  <g>
    <path class="cls-1" d="m20.49,103.01c.47-.82.88-1.55,1.24-2.15l1.27-2.5c-2.68-7.39-4.15-15.37-4.15-23.67C18.85,36.26,50.11,5,88.53,5s69.68,31.26,69.68,69.68c0,8.36-1.48,16.38-4.19,23.81.36.71.52,1.04.54,1.09.22.41.5.94.82,1.55.47.9,1.04,1.98,1.69,3.17,3.94-9.09,6.14-19.1,6.14-29.62C163.21,33.5,129.71,0,88.53,0S13.85,33.5,13.85,74.68c0,10.43,2.16,20.36,6.03,29.39.21-.36.41-.72.6-1.06Z"/>
    <path class="cls-1" d="m149.88,107.7c-11.79,21.81-34.86,36.66-61.34,36.66-19.13,0-36.48-7.75-49.08-20.27-.72.86-1.79,1.37-2.94,1.37h-2.67c13.65,14.69,33.11,23.9,54.69,23.9,27.14,0,50.94-14.56,64.02-36.27l-2.67-5.39Z"/>
  </g>
  <path class="cls-1" d="m177.06,123.46h-.28s-15.71,0-15.71,0c-.71,0-1.36-.4-1.67-1.04l-32.85-66.22-23.89,47.21c-.7,1.39-2.68,1.39-3.38,0l-25.72-50.59-35.39,69.62c-.32.63-.96,1.02-1.66,1.02H0c12.52,0,20.15-16.1,23.44-21.57L61.41,26.92c.69-1.36,2.63-1.36,3.33,0l29.85,58.69c.7,1.38,2.68,1.38,3.38,0l22.22-43.89c.69-1.37,2.65-1.36,3.33.01,0,0,29.16,58.58,29.27,58.78,2.76,5.07,10.84,22.96,24.28,22.96Z"/>
</svg>